<svg width="16" height="16" fill="none" xmlns="http://www.w3.org/2000/svg"><path d="M14.667 5.954c0-.404 0-.606-.08-.7a.333.333 0 00-.28-.115c-.122.01-.265.153-.55.438L11.332 8l2.423 2.423c.286.285.429.428.551.438a.333.333 0 00.28-.116c.08-.093.08-.295.08-.7v-4.09z" stroke="gray" stroke-linecap="round" stroke-linejoin="round"/><path d="M1.333 6.533c0-1.12 0-1.68.218-2.108a2 2 0 01.874-.874c.428-.218.988-.218 2.108-.218h3.6c1.12 0 1.68 0 2.108.218a2 2 0 01.874.874c.218.428.218.988.218 2.108v2.934c0 1.12 0 1.68-.218 2.108a2 2 0 01-.874.874c-.428.218-.988.218-2.108.218h-3.6c-1.12 0-1.68 0-2.108-.218a2 2 0 01-.874-.874c-.218-.428-.218-.988-.218-2.108V6.533z" stroke="gray" stroke-linecap="round" stroke-linejoin="round"/></svg>