<?xml version="1.0" encoding="utf-8"?>
<!-- Generator: Adobe Illustrator 22.1.0, SVG Export Plug-In . SVG Version: 6.00 Build 0)  -->
<svg version="1.1"
	 xmlns="http://www.w3.org/2000/svg" xmlns:xlink="http://www.w3.org/1999/xlink" x="0px" y="0px" viewBox="0 0 20 20"
	 style="enable-background:new 0 0 20 20;" xml:space="preserve">
<style type="text/css">
	.st0{fill:none;}
	.st1{fill:#FFCC6B;}
</style>
<metadata>
	<sfw>
		<slices></slices>
		<sliceSourceBounds  bottomLeftOrigin="true" height="20" width="20" x="40" y="-60"></sliceSourceBounds>
	</sfw>
</metadata>
<path class="st0" d="M6.5,10.5c0.6,0,1-0.4,1-1v-4c0-0.6-0.4-1-1-1s-1,0.4-1,1v4C5.5,10.1,5.9,10.5,6.5,10.5z"/>
<path class="st0" d="M13.5,10.5c0.6,0,1-0.4,1-1v-4c0-0.6-0.4-1-1-1s-1,0.4-1,1v4C12.5,10.1,12.9,10.5,13.5,10.5z"/>
<path class="st0" d="M16.8,10.8c-0.5-0.2-1.1,0.1-1.3,0.6c-1,3-3.5,4-5.6,4c-2.1,0-4.6-1.1-5.6-4c-0.2-0.5-0.7-0.8-1.3-0.6
	c-0.5,0.2-0.8,0.7-0.6,1.3c1.1,3.3,4,5.4,7.5,5.4s6.4-2.1,7.5-5.4C17.6,11.5,17.3,10.9,16.8,10.8z"/>
<path class="st1" d="M10,0C4.5,0,0,4.5,0,10c0,5.5,4.5,10,10,10s10-4.5,10-10C20,4.5,15.5,0,10,0z M12.5,5.5c0-0.6,0.4-1,1-1
	s1,0.4,1,1v4c0,0.6-0.4,1-1,1s-1-0.4-1-1V5.5z M5.5,5.5c0-0.6,0.4-1,1-1s1,0.4,1,1v4c0,0.6-0.4,1-1,1s-1-0.4-1-1V5.5z M10,17.4
	c-3.5,0-6.4-2.1-7.5-5.4c-0.2-0.5,0.1-1.1,0.6-1.3c0.5-0.2,1.1,0.1,1.3,0.6c1,3,3.5,4,5.6,4c2.1,0,4.6-1.1,5.6-4
	c0.2-0.5,0.7-0.8,1.3-0.6c0.5,0.2,0.8,0.7,0.6,1.3C16.4,15.3,13.5,17.4,10,17.4z"/>
</svg>
