<?xml version="1.0" encoding="utf-8"?>
<!-- Generator: Adobe Illustrator 22.1.0, SVG Export Plug-In . SVG Version: 6.00 Build 0)  -->
<svg version="1.1"
	 xmlns="http://www.w3.org/2000/svg" xmlns:xlink="http://www.w3.org/1999/xlink" x="0px" y="0px" viewBox="0 0 192.1 191.7"
	 style="enable-background:new 0 0 192.1 191.7;" xml:space="preserve">
<style type="text/css">
	.st0{fill:#848484;}
	.st1{fill:#FFFFFF;stroke:#848484;stroke-width:0.8781;stroke-miterlimit:10;}
</style>
<metadata>
	<sfw>
		<slices></slices>
		<sliceSourceBounds  bottomLeftOrigin="true" height="192" width="192.1" x="0" y="-0.3"></sliceSourceBounds>
	</sfw>
</metadata>
<path class="st0" d="M125.4,0H66.6C12.8,0,0,12.8,0,66.6v58.9C0,179.2,12.8,192,66.6,192h58.9c53.8,0,66.6-12.8,66.6-66.6V66.6
	C192,12.8,179.2,0,125.4,0z"/>
<g id="Artboard">
	<path id="Path-3" class="st1" d="M39.6,89.3C70.4,76,90.8,67.1,101.1,62.8c29.2-12.2,35.4-14.3,39.3-14.4c1.5,0,2.9,0.4,4.1,1.2
		c0.8,0.8,1.4,1.8,1.5,2.9c0.3,1.4,0.3,2.7,0.2,4.1c-1.6,16.7-8.4,57.2-11.9,75.8c-1.5,7.9-4.4,10.5-7.2,10.8
		c-6.1,0.5-10.8-4-16.7-7.9c-9.3-6.1-14.5-9.8-23.5-15.8c-10.4-6.8-3.7-10.6,2.3-16.8c1.6-1.6,28.5-26.2,29.1-28.4
		c0.2-0.7-0.1-1.3-0.5-1.8c-0.7-0.4-1.5-0.4-2.2-0.2c-1,0.2-15.7,10-44.4,29.4c-4.2,2.9-8,4.3-11.4,4.2c-3.8-0.1-11-2.1-16.4-3.9
		c-6.6-2.1-11.9-3.2-11.4-6.9C32.1,93.3,34.7,91.4,39.6,89.3z"/>
</g>
</svg>
