<?xml version="1.0" encoding="utf-8"?>
<!-- Generator: Adobe Illustrator 22.1.0, SVG Export Plug-In . SVG Version: 6.00 Build 0)  -->
<svg version="1.1" id="svg8"
	 xmlns="http://www.w3.org/2000/svg" xmlns:xlink="http://www.w3.org/1999/xlink" x="0px" y="0px" viewBox="0 0 192 192"
	 style="enable-background:new 0 0 192 192;" xml:space="preserve">
<style type="text/css">
	.st0{fill:#848484;}
	.st1{fill:#FFFFFF;}
</style>
<metadata>
	<sfw>
		<slices></slices>
		<sliceSourceBounds  bottomLeftOrigin="true" height="192" width="192" x="0" y="0"></sliceSourceBounds>
	</sfw>
</metadata>
<path class="st0" d="M125.4,0H66.6C12.8,0,0,12.8,0,66.6v58.9C0,179.2,12.8,192,66.6,192h58.9c53.8,0,66.6-12.8,66.6-66.6V66.6
	C192,12.8,179.2,0,125.4,0z M155,137h-14c-5.3,0-6.9-4.3-16.4-13.8c-8.3-8-11.9-9-13.9-9c-2.8,0-3.7,0.8-3.7,4.8v12.6
	c0,3.4-1.1,5.4-10,5.4c-14.8,0-31.1-9-42.7-25.6C37,87.1,32.2,68.7,32.2,65c0-2.1,0.8-4,4.8-4h14c3.6,0,4.9,1.6,6.3,5.4
	c6.8,20,18.4,37.4,23.1,37.4c1.8,0,2.6-0.8,2.6-5.3V77.9c-0.6-9.5-5.6-10.3-5.6-13.6l0,0c0.1-1.9,1.7-3.3,3.5-3.2c0,0,0,0,0,0h22
	c3,0,4,1.6,4,5.2v27.8c0,3,1.3,4,2.2,4c1.8,0,3.3-1,6.5-4.3C125.8,82.3,132.9,65,132.9,65c0.9-2.6,3.4-4.2,6.1-4h14
	c4.2,0,5.1,2.2,4.2,5.2l0,0c-1.8,8.2-18.8,32.2-18.8,32.2c-1.5,2.4-2.1,3.6,0,6.2c1.5,2.1,6.4,6.2,9.6,10.1
	c6,6.8,10.7,12.4,11.8,16.4S159,137,155,137z"/>
<path class="st1" d="M32,65c0,3.7,4.8,22.1,22.1,46.4C65.7,128,82,137,96.8,137c8.9,0,10-2,10-5.5V119c0-4,0.8-4.8,3.7-4.8
	c2.1,0,5.6,1,13.9,9c9.5,9.5,11.1,13.8,16.4,13.8h14c4,0,6-2,4.8-6c-1.1-4-5.8-9.6-11.8-16.4c-3.3-3.9-8.2-8-9.6-10.1
	c-2.1-2.7-1.5-3.9,0-6.2c0,0,17-24,18.8-32.2c0.9-3,0-5.1-4.2-5.1h-14c-2.7-0.2-5.2,1.4-6.1,4c0,0-7.1,17.3-17.2,28.6
	c-3.3,3.3-4.7,4.3-6.5,4.3c-0.9,0-2.2-1-2.2-4V66.1c0-3.6-1-5.1-4-5.1h-22c0,0,0,0,0,0c-1.9-0.1-3.4,1.4-3.5,3.2
	c0,3.4,5,4.2,5.6,13.6v20.6c0,4.5-0.8,5.3-2.6,5.3c-4.7,0-16.3-17.4-23.1-37.4c-1.4-3.9-2.7-5.4-6.3-5.4h-14C32.8,61,32,62.9,32,65z
	"/>
</svg>
