<?xml version="1.0" encoding="utf-8"?>
<!-- Generator: Adobe Illustrator 22.1.0, SVG Export Plug-In . SVG Version: 6.00 Build 0)  -->
<svg version="1.1"
	 xmlns="http://www.w3.org/2000/svg" xmlns:xlink="http://www.w3.org/1999/xlink" x="0px" y="0px" viewBox="0 0 192.1 192"
	 style="enable-background:new 0 0 192.1 192;" xml:space="preserve">
<style type="text/css">
	.st0{fill:#848484;}
	.st1{fill:#FFFFFF;}
</style>
<metadata>
	<sfw>
		<slices></slices>
		<sliceSourceBounds  bottomLeftOrigin="true" height="192" width="192.1" x="0" y="0"></sliceSourceBounds>
	</sfw>
</metadata>
<path class="st0" d="M125.4,0H66.6C12.8,0,0,12.8,0,66.6v58.9C0,179.2,12.8,192,66.6,192h58.9c53.8,0,66.6-12.8,66.6-66.6V66.6
	C192,12.8,179.2,0,125.4,0z"/>
<path class="st1" d="M159.6,64.9c-1.6-7-7.3-12.2-14.3-13c-16.3-1.8-32.8-1.8-49.3-1.8c-16.4,0-33,0-49.3,1.8
	c-6.9,0.8-12.6,6-14.3,13c-2.3,9.9-2.3,20.8-2.3,31.1s0,21.2,2.3,31.1c1.6,7,7.3,12.2,14.3,13c16.3,1.8,32.8,1.8,49.3,1.8
	c16.4,0,33,0,49.3-1.8c6.9-0.8,12.6-6,14.3-13c2.3-9.9,2.3-20.8,2.3-31.1C161.9,85.7,162,74.8,159.6,64.9z M79.1,116.4
	c0-14.6,0-28.9,0-43.6c13.9,7.3,27.8,14.5,41.8,21.9C106.9,102,93.1,109.2,79.1,116.4z"/>
</svg>
